<?xml version="1.0" standalone="no"?>
<!DOCTYPE svg PUBLIC "-//W3C//DTD SVG 20010904//EN"
 "http://www.w3.org/TR/2001/REC-SVG-20010904/DTD/svg10.dtd">
<svg version="1.0" xmlns="http://www.w3.org/2000/svg"
 width="1040.000000pt" height="1040.000000pt" viewBox="0 0 1040.000000 1040.000000"
 preserveAspectRatio="xMidYMid meet">
<metadata>
Created by potrace 1.14, written by Peter Selinger 2001-2017
</metadata>
<g transform="translate(0.000000,1040.000000) scale(0.100000,-0.100000)"
fill="#000000" stroke="none">
<path d="M1930 9259 c-86 -9 -184 -25 -210 -35 -8 -3 -26 -8 -40 -10 -42 -8
-193 -72 -264 -111 -144 -80 -335 -253 -448 -405 -81 -109 -224 -332 -229
-356 -1 -4 -10 -19 -20 -34 -10 -14 -19 -31 -19 -37 0 -6 -5 -11 -10 -11 -6 0
-9 -3 -8 -7 1 -5 -17 -46 -39 -93 -22 -47 -44 -96 -48 -110 -4 -14 -11 -30
-16 -35 -4 -6 -10 -22 -12 -35 -3 -14 -10 -38 -17 -55 -10 -25 -34 -120 -45
-175 -10 -51 -17 -131 -21 -245 -8 -198 -8 -200 0 -213 4 -7 4 -12 -1 -12 -7
0 -10 -524 -4 -540 1 -3 4 -25 6 -50 2 -25 6 -58 10 -75 3 -16 8 -43 11 -60 3
-16 8 -37 11 -45 3 -8 7 -21 9 -27 1 -7 11 -41 22 -76 12 -34 24 -76 27 -92 8
-41 13 -60 15 -60 1 0 3 -9 5 -20 2 -11 6 -31 10 -45 4 -14 9 -106 11 -205 4
-221 12 -389 19 -432 3 -18 7 -45 9 -60 8 -55 64 -209 95 -261 17 -29 31 -55
31 -58 0 -17 154 -214 220 -281 44 -45 80 -83 80 -86 0 -2 -35 -31 -77 -63
-43 -32 -84 -64 -91 -71 -7 -7 -17 -13 -21 -13 -25 0 -116 -113 -156 -195 -11
-22 -24 -43 -28 -46 -5 -3 -9 -10 -9 -15 0 -5 -9 -29 -20 -54 -11 -25 -25 -58
-33 -75 -33 -75 -98 -254 -140 -385 -15 -47 -31 -96 -36 -110 -11 -34 -75
-266 -85 -310 -4 -19 -8 -37 -9 -40 -5 -23 -19 -99 -21 -115 -11 -106 -15
-146 -19 -180 -2 -22 -4 -40 -5 -40 0 0 -3 -28 -5 -61 -2 -34 -6 -88 -9 -120
-8 -76 -22 -318 -32 -544 -7 -174 -11 -934 -4 -993 3 -32 4 -60 1 -63 -3 -3
-6 -40 -7 -83 l-1 -77 556 -2 c306 -2 1711 -2 3122 -1 1775 0 2569 -2 2573
-10 4 -5 12 -8 19 -6 20 8 728 14 1808 15 l1017 1 1 87 c1 68 1 317 1 627 0
475 9 1007 18 1033 6 18 11 35 11 37 1 3 1 6 2 8 0 1 2 9 4 17 1 8 8 40 14 71
6 30 14 66 16 80 8 43 23 104 25 104 1 0 3 16 5 35 3 19 7 44 9 55 3 11 15 63
26 115 12 52 23 104 26 115 5 22 11 53 19 100 4 17 13 59 21 95 9 36 17 76 19
90 1 14 5 34 8 45 4 11 9 36 12 55 3 19 10 51 15 70 9 36 20 90 25 125 1 11 3
20 4 20 2 0 4 7 6 15 1 8 10 51 20 95 9 44 19 94 21 110 3 17 12 55 19 85 7
30 16 69 19 85 3 17 8 41 11 55 3 14 8 34 10 45 2 11 7 34 10 50 4 17 8 39 10
50 3 11 6 27 8 35 4 15 15 70 21 100 2 8 6 26 10 40 4 14 9 39 11 55 2 17 4
30 5 30 1 0 3 11 6 25 2 14 8 44 14 68 28 119 34 145 45 207 2 11 15 70 30
130 14 61 28 124 30 142 2 18 6 36 9 41 3 5 8 24 11 43 3 19 10 50 15 69 5 19
11 46 14 60 2 14 5 25 6 25 1 0 3 9 4 20 2 11 11 52 20 90 10 39 19 77 21 85
2 8 15 62 30 120 15 58 29 116 31 130 3 14 7 32 9 40 19 67 25 173 13 219 -6
19 -26 60 -46 92 -38 61 -50 67 -148 74 -22 2 -76 8 -119 15 -43 7 -92 14
-109 17 -17 2 -44 5 -61 7 -26 3 -68 9 -135 21 -8 1 -43 6 -77 10 -35 4 -64
10 -65 13 -1 7 -8 211 -8 242 0 8 0 296 0 640 0 743 0 626 3 800 1 80 -1 152
-5 161 -4 9 -44 53 -89 98 -67 66 -88 81 -113 81 -17 1 -1067 1 -2334 1
l-2303 1 -67 49 c-37 27 -71 53 -77 57 -57 45 -358 184 -424 197 -9 2 -16 4
-16 5 0 1 -7 3 -15 5 -8 2 -51 12 -95 23 -127 33 -139 35 -160 37 -11 1 -51 8
-90 14 -128 22 -196 31 -280 37 -27 2 -77 5 -110 8 -33 2 -105 7 -160 10 -55
4 -136 9 -180 11 -44 3 -118 7 -165 10 -47 2 -116 7 -155 10 -38 3 -104 8
-145 10 -41 2 -75 4 -75 5 0 6 -321 4 -375 -1z"/>
</g>
</svg>
