<?xml version="1.0" encoding="utf-8"?>
<!DOCTYPE svg PUBLIC "-//W3C//DTD SVG 1.1//EN" "http://www.w3.org/Graphics/SVG/1.1/DTD/svg11.dtd">
<svg version="1.1" id="Layer_1" xmlns="http://www.w3.org/2000/svg" xmlns:xlink="http://www.w3.org/1999/xlink" x="0px"
     y="0px"
     viewBox="143.8 110.2 411.2 338.6" width="65" height="55" xml:space="preserve">
<g>
	
		<rect x="209.2" y="145.3" fill="#FFD573" stroke="#000000" stroke-width="14" stroke-linecap="round"
              stroke-linejoin="bevel" stroke-miterlimit="10" width="297.8" height="287.3"/>
    <rect x="433" y="377.6" width="70.5" height="51.4"/>

    <line fill="none" stroke="#726658" stroke-width="15" stroke-linecap="square" stroke-linejoin="bevel"
          stroke-miterlimit="10" x1="346.2" y1="159.8" x2="346.5" y2="330.5"/>

    <line fill="none" stroke="#726658" stroke-width="15" stroke-linecap="square" stroke-linejoin="bevel"
          stroke-miterlimit="10" x1="332" y1="159.4" x2="495.7" y2="159.1"/>

    <line fill="none" stroke="#726658" stroke-width="15" stroke-linecap="square" stroke-linejoin="bevel"
          stroke-miterlimit="10" x1="495.3" y1="159.6" x2="495.6" y2="346.5"/>

    <line fill="none" stroke="#000000" stroke-width="10" stroke-linecap="square" stroke-linejoin="bevel"
          stroke-miterlimit="10" x1="353.4" y1="145.3" x2="353.3" y2="324.5"/>

    <line fill="none" stroke="#000000" stroke-width="10" stroke-linecap="round" stroke-linejoin="bevel"
          stroke-miterlimit="10" x1="499.5" y1="276" x2="304.3" y2="275.3"/>
    <path fill="none" stroke="#000000" stroke-linecap="round" stroke-linejoin="bevel" stroke-miterlimit="10"
          d="M294.3,341.1v20.4"
    />
    <path fill="none" stroke="#000000" stroke-linecap="round" stroke-linejoin="bevel" stroke-miterlimit="10" d="M299.1,358.8
		c6.6-0.5,8.8-1.7,14.3,1.4c5.3,3,7.9,3.5,14.3,4c5.1,0.5,10.9,0.7,16.3,1.4c5.2,0.7,8.5,2.9,14.3,2.7c6.3-0.2,9.2-3.3,14.8-4.9
		c5.4-1.5,13.8,2.2,15.1-4.6c2.5-12.4-22.6-2.5-30.8-9.4c-3.1-2.6-3.8-5.5-3.1-9.6c8.4-1,16.4-8.7,25.8-6.3
		c4.1,1.1,6.5,6.7,10.8,6.9c7.5,0.2,3.8-4.4,2.2-8.8c4.7,4.9,8.1,0.1,6-5.5c-1.8-4.9-6.9-6.1-10.4-10.2c-9.1-10.8-19.1-5.1-29.8-4.8
		c-3.2,0.1-6.2-0.1-8.6,0.7c-8.6,3.1-14.6,9-24.1,11.5c-7.8,2-21.6,4.3-27.9,8.9c-3.9,2.8-1.7,4.5-4.1,8.8"/>
    <path fill="none" stroke="#000000" stroke-linecap="round" stroke-linejoin="bevel" stroke-miterlimit="10" d="M378.7,379.2
		c-4.3,2.4-3.2,10.2,0.7,12.9"/>
    <path fill="#BCBEC0" stroke="#000000" stroke-linecap="round" stroke-linejoin="bevel" stroke-miterlimit="10" d="M400.4,414
		c1.5-9.9,15.8-15.4,26.5-16.2c7-0.6,13.2-1.3,20.3-1.3c7.5,0,6.8,1.8,11.4,6.1c2.9,2.7,5.8,8,9.7,9.7c1.6,0.7,5,5.7,6.7,6.1
		c3.7,0.8,11.1,5.5,13.5,6.9c8.1,5.1,16.1,12.5,16.6,12.8c0.5,0.3,1.9,0-2.1,0.3c-15.4,1.1-37.5-1-50.3,0
		c-12,0.9-23.9-13.9-35.6-12.8c-4.1,0.4-12.4,2.4-14-0.9c-1-2,0.1-6.2-0.6-8.5c-1.7-5.4-3.4-6.3,2.8-10.6"/>
    <path fill="#A7A9AC" d="M441.8,420.4c8-2.3,12.9,3.7,18.7,8.1c3.6,2.7,14.5,7.7,17.9,4c7.1-7.6-31.3-15.3-37.9-13"/>

    <path fill="#A7A9AC" stroke="#000000" stroke-width="3" stroke-linecap="round" stroke-linejoin="bevel"
          stroke-miterlimit="10" d="
		M267.1,321.4c6-0.8,9.3,2.2,14.5,3.9c2.9,1,16.5,0.4,18,2.4c1.2,1.5-4.2,10.7-4.6,14.2c-0.8,6.6-0.4,14-0.8,20.9
		c-4,1.5-2.8,0.3-3.9,0c-0.2-3.1-2.7-5.7-2.8-8.7c-4.2-2.7-5.2-10.4-9.4-14.1c-5.5-4.9-14.1-11.4-21.4-12.8
		c-0.6-6.4,13.4-4.8,17.9-5.7"/>
    <path fill="#FFFFFF" d="M385.9,328c1.8,1.6,8.2,7.1,8.7,8.4s1.4,2.1,0.7,2.9s-2.3,1.9-3.4,1.6s-3.9-1.4-5-2.7s-2.1-2.3-3.9-3.2
		s-5.5-1.2-7-1.2s-6.2,0-7.1,0.4s-6.1,3.4-8.9,4.1s-6.6,1.7-6.7,2.5s-0.3,2.7,0.8,4.8s1,3.6,2,4.3s4.2,2.8,8.5,3.6s8.6-0.4,9.3-0.7
		s3.1-0.8,4.8-0.6s3-0.1,4.1,0.4s3,1.6,3.7,3s0.9,3.6,1.1,4.1s-0.4,1.2-1.2,2s-0.5,1.2-4.8,1.4s-5.7-0.4-7.5,0.2s-2.4,1-4.9,1.8
		s-4.2,2.8-6.1,3.2s-7.4,0.3-9.5-0.4s-3.6-1.4-6.9-1.6s-4.8,0.4-9.1,0.2s-6.2-0.4-9.4-0.7s-3.7,0-6.1-0.7s-4.3-3.2-7.5-4.6
		s-4.6-2.9-7.8-2.7s-9.8,2.1-11,2.7s-1.2,0.5-1.2,0.5s0.5-16,0.5-17.5s1.4-4.3,2.3-7.3s1.1-3.7,1.1-3.7s3.9-2.5,9.1-4
		s8.9-1.8,14.1-3.4s10.7-3.2,15-5.7s6.9-4.1,10.9-6.2s1.9-1.7,5.7-2.1c4.1-0.5,3.7,0.4,7.8,0.2s9.8-0.9,11.8-1.2s3.6,0.4,6.2,1.6
		s4.3,2,8.4,6.2s9.8,9.1,11,11.2s3.2,3.6,2.3,4.1s-0.4,1.8-2.7,0.5c-2.3-1.2-1.9,0.2-5-1.8s-6.5-4.5-7.9-5.7s-3.1-2.8-3.7-3.4
		s-0.6-0.6-0.6-0.6h-4.8l3.6,1.3"/>
    <path fill="#FFFFFF" d="M374,383.6l1.8-9c0,0-2.2-3.1-2.7-5.4s-0.5-3.9,0.4-4.5s3.6-0.2,4.5,0.2s2.9,1.2,4.3,2s3.2,1.8,3.4,3.6
		s-0.5,6.8,0.5,7.5s2.1,1.4,3,1.2s2.7,0.2,2.5-1.1s0.3-13.9,1.3-20.6c0.8-5.4,0.7-11.1,1.8-12.9s3-3.2,4.1-3.2s3,0.7,4.5,3.4
		s2.5,5.2,3.6,5.7s2.1,1.4,3,1.1s1.5,0.2,1.8-1s-0.2-3.7-0.5-5.8s-0.4-6.3,1.5-6.7c2-0.5,5,2.1,5.9,2.8s3.7,3,5.3,4.3
		s2.7,2.8,2.7,2.8s1.2-0.7,2.1-1.6s5-2.4,6.8-1.9s2.6,2.2,3.8,3s2.3,4.9,2.1,6.5s-1.2,4.9-1.1,6.2s0.2,2.4,0.2,2.4s0-0.4,1.1-0.7
		s2.7-2.1,3.7-2.1s4.1,0,5,1.2s1.1,2.5,0.9,6.1s0,9.3,0,11.2s0.7,2.7,1.1,4.5s0.9,2,0.4,5.5s-0.5,5.7-0.4,7.7s0.4,2-7.5,1.8
		s-19.6,0.9-21.6,1.4s-9.3,2.9-9.3,2.9c-2.1-0.2-4.8,1.8-7.3,2.5s-2,1-4.5,1.7s-5.7,0.5-7.1,0.3s-8.8-4.7-12.5-7.9
		s-7.8-7.8-8.2-10.9S374,383.6,374,383.6L374,383.6z"/>

    <linearGradient id="SVGID_1_" gradientUnits="userSpaceOnUse" x1="391.8761" y1="153.849" x2="438.1661" y2="450.869"
                    gradientTransform="matrix(1 0 0 -1 0 614)">
		<stop offset="0" style="stop-color:#000000"/>
        <stop offset="0.1921" style="stop-color:#646567"/>
        <stop offset="0.4102" style="stop-color:#96999B"/>
        <stop offset="0.6082" style="stop-color:#C1C3C5"/>
        <stop offset="0.7787" style="stop-color:#E1E2E3"/>
        <stop offset="0.9149" style="stop-color:#F5F5F5"/>
        <stop offset="1" style="stop-color:#FFFFFF"/>
	</linearGradient>
    <path fill="url(#SVGID_1_)" stroke="#000000" stroke-linecap="round" stroke-linejoin="bevel" stroke-miterlimit="10"
          d="
		M372,306.4l18.6-104.7c0,0,0.3-0.8,0.5-0.7c4,0.7,144.9,21.1,144.9,21.1s4.8-0.7,6.1,2.7s4.1,2-0.7,19.7s-25.9,120.4-27.2,125.8
		s-3.4,8.2-3.4,8.2s1.4,1.4-0.7,4.8s-41.3,30.5-41.3,30.5s-2.4-2.8-6.4-7c-3.5-3.8-4.8-3.8-9-7.1c-3.8-2.9,0.3-11.7-1.1-16.4
		s-1.4-0.7-1.4-10.9s0.9-8,0-10.2c-2.1-5.1-8.2-1.4-8.2-1.4s-3.4,4.1-2.7-0.7s-0.4-10.1-1.7-13.1c-1.3-3.1-5.7-2.9-8.5-0.8
		s-2.5,2.6-2.5,2.6s-2.1-2.1-2.7-2.7c-6.8-6.8-8.9-8.8-11.6-8.2s-2.3,3.2-2.2,5.9c0.2,2.8,1,6.2,0.3,7.3c-1.4,2.1-4.2,0.4-5.8-2.6
		c-2.5-4.7-3.8-6.4-3.8-6.4s-7.5-4.4-8.7,8.1c-0.4,4.4-0.1,3-1.4,15.6c-0.5,4.7,1.6,13.3-1.1,13.3s-4.8,0-4.8-3.4s1-3.3,0-6.2
		c-1-3-12.9-7.6-12.9-3.5s3.1,8.5,3.1,8.5c-1.4,7.5-2,10.5-1.3,13.7c1.3,5.9,7.7,10.7,15.8,16.2s16.3,0.2,16.3,0.2l1.8,15.2
		l-5.9,19.9c0,0-17.7-9.6-33.7-19.2c-2.6-1.6-11.4-6.6-14.5-8c-8.9-3.9-11.6-5.4-17.7-8.2s-15-4.8-17-7.5s-3.6-3.9-13.9-12.8
		c-10-8.6-8.6-6.3-12.2-9.7c-3-2.9-2.3-6.1-2.3-6.1l-0.3-3c0,0,0-0.9-0.4-2.9c-0.3-1.1,2.1-1.5,8.8-2.9c7.4-1.6,7.4-2.8,12.1-0.7
		s6.1,6.1,11.6,6.1s16.3,2,21.1,1.4s2.7,0.3,8.8,1.4c6.5,1.1,5.6,1.8,10.2,0.5c1.3-0.4,3.3-2.5,6.1-3.2c9.8-2.2,19.7-0.7,18.4-6.1
		s-2-6.8-8.8-6.8s-6.1,2-12.9,0.7s-9.7-3-9.7-3s-1.9-2.5-2.5-4.5s-1-4.3-0.2-4.6c3.3-1.1,0.2,0.5,7.7-2.9s6.8-4.1,12.2-4.1
		s8.8,0.7,8.8,0.7s-0.1,0.4,3.9,3.3c2.5,1.8,0.7,2.5,4.6,2.3c6.1-0.3,5.1-2.2,5.1-2.2s-15-15.6-19.7-15.6s4.8,0,4.8,0
		s7.5,7.5,13.6,10.2s6.1,0,6.1,0l-4.1-6.1l-12.2-12.2c0,0,0.4-0.5-5.9-3.2c-7.5-3.2-8.6,0.1-14,0.1S372,306.4,372,306.4L372,306.4z"
    />

    <line fill="none" stroke="#000000" stroke-linecap="round" stroke-linejoin="bevel" stroke-miterlimit="10" x1="511.3"
          y1="377.9" x2="441.9" y2="351.4"/>
    <path fill="none" stroke="#000000" stroke-linecap="round" stroke-linejoin="bevel" stroke-miterlimit="10" d="M342.8,371.5
		l-29,8.9l2.9,1.6l28.3,14.1l8.8,4c0,0,1.2,0.6,2.9-0.2c2.7-1.2,17.9-10.6,17.9-10.6s-0.7-3.3-4-5.3s-21.9-11.9-21.9-11.9
		S346.1,370.8,342.8,371.5"/>
    <path fill="#D1D3D4" stroke="#000000" stroke-linecap="round" stroke-linejoin="bevel" stroke-miterlimit="10" d="M398.1,213.2
		l132.2,21.2l-26.1,127.1l-106.8-36.7c-13.3-9.1-12.2-8.8-12.9-9.5l-2-2L398.1,213.2L398.1,213.2z"/>
    <path fill="none" stroke="#000000" stroke-linecap="round" stroke-linejoin="bevel" stroke-miterlimit="10"
          d="M185.6,129.2"/>
    <path fill="#FFFFFF" d="M341.9,180.7c3.5-10.8-16-34-22.3-40.5c-9-8-23.6-12.3-35.5-14.5c-10.4-2.2-20.9-2.9-32-2.9
		c-12.5,0-26.4-3.6-38.9,0c-17.4,5.1-27.1,16.6-35.5,31.8c-7,11.6-11.1,21-11.1,34.7c0,10.1-0.7,21,0,30.4c0.7,9.4,5.6,15.9,5.6,26
		c0,11.6-1.4,21.7,4.2,31.1C182,287,191,297.1,202.1,300c13.2,3.6-5.6,1.4,13.2,2.9"/>
    <path d="M345.5,181.4c2.2-8.1-3.1-16.5-7.2-23c-4.3-6.9-9.7-14.9-16-20.2c-21.1-17.8-51.3-16.7-77.1-18.5
		c-14.3-1-27.4-2.6-40.9,3.2c-10.3,4.4-18.4,12.5-24.6,21.6c-6.8,9.9-13.2,21.1-15.7,33c-1.3,6.3-1.1,12.7-1.3,19.1
		c-0.1,7.7-0.4,15.4,0.1,23.1c0.3,4.4,1.6,8.6,2.9,12.8c1.8,5.6,2.7,10.8,2.6,16.7c-0.1,10.2-0.4,19.9,4.7,29.1
		c4.7,8.4,11,15.9,19.4,20.9c3.7,2.2,7.6,3,11.5,4.5c1.7,0.6,3.3-6.5-0.3-3.3c-2.6,2.3,0,4.6,2.6,4.8c3,0.3,6,0.4,9,0.6
		c4.7,0.4,4.6-5.3,0-5.6c-3-0.2-6-0.3-9-0.6c0.9,1.6,1.8,3.2,2.6,4.8c-0.7,0.6-2.4,1.3-0.1,0.3c0.8-0.4,1.7-1,2-1.9
		c1-3-3.5-4.2-5.4-4.8c-13.1-3.9-23.5-14.7-28-27.6c-2.2-6.1-1.7-13.1-1.5-19.5c0.1-7-0.7-13.2-2.8-19.9c-4.5-14-2.8-28.8-2.7-43.3
		c0.2-13.6,6.7-25.3,13.5-36.7c6.2-10.3,14.3-18.9,25.5-23.8c14.1-6.1,29.8-1.7,44.6-1.6c14.4,0.1,28.8,1.9,42.6,6
		c6.8,2,15.2,5.1,20.2,10.4c3.1,3.2,5.9,6.7,8.7,10.2c3.6,4.6,6.9,9.4,9.6,14.6c2,3.7,4.3,8.8,3.2,13.1
		C337.3,183.8,344.6,184.9,345.5,181.4L345.5,181.4z"/>
    <path fill="#939598" d="M401.6,425.8c0-0.2-0.3-1.9-0.6-2.3c-2-2.9-12.4-9.9-11.4-11.6c1.7-3.1,11.8-6.1,16.9-7.7
		c3-0.9,3.2-1.8,5.9-2.4c3.5-0.8-0.7,3.5,2.7,12.9c1,3.1,11.8,1.6,12.1,4.4c11.4,0.4-7.6,7.4,4.6,8.5c19.2,14.4,33.3,4.2,35.4,9.6
		c0,0,37.9,1-52.2,2.8c-8.1,0.2-11.6-0.2-13.4,0c-2.2,0.2,1.3-1.6-0.1-7.8c-0.4-2,0.1-3.3,0.1-5"/>
    <path fill="#FFFFFF" d="M315.8,162.1c0,0,9.4,8.1,12.8,18.8s7.4,20.8-2.7,38.3s-20.1,61.7-26.8,69.1s-23.5,18.8-28.2,22.1
		s-11,6.4-18.1,11.4c-6.6,4.6-35.6-24.8-35.6-24.8l69.1-121.5L315.8,162.1L315.8,162.1z"/>
    <path fill="#FFFFFF" d="M327.6,190.8c0.7,6.8-1.4,14.3-6.8,17.7"/>
    <path d="M322.8,191.4c0.4,4.7,0,11.1-4.4,14.1c-5.4,3.7,0.1,9.2,4.9,6c7.1-4.8,9.9-12.9,9.3-21.3
		C332.1,184.8,322.4,186.7,322.8,191.4L322.8,191.4z"/>
    <path fill="#FFFFFF" d="M315.1,200.5c-2.1,8.6-7.8,14.9-15.8,19.3"/>
    <path d="M311.5,200.2c-2.1,7.9-7.2,13.5-14.3,17.4c-4.3,2.4,0.9,6.3,4.3,4.4c8.4-4.7,14.9-11.7,17.3-21.2
		C319.8,197,312.4,196.7,311.5,200.2L311.5,200.2z"/>
    <path fill="none" stroke="#000000" stroke-width="5" stroke-linecap="round" stroke-linejoin="bevel"
          stroke-miterlimit="10" d="
		M267.2,237.1c-6.4-0.8-13.7,4.5-16.6,9.6c-2.2,3.9-3.2,7.2-3.3,11.5c-0.1,4.1,0.6,6.6-2.8,11c-10,5.9-11.2,6.3-17,9"/>
    <path fill="none" stroke="#000000" stroke-width="4" stroke-linecap="round" stroke-linejoin="bevel"
          stroke-miterlimit="10" d="
		M289.5,238.5c-0.9-1.2-2.4-2-4.1-2.1"/>

    <path fill="#FFFFFF" stroke="#000000" stroke-width="2" stroke-linecap="round" stroke-linejoin="bevel"
          stroke-miterlimit="10" d="
		M290.9,243.6c-4.8-3.6-3.5-11.9-12.2-11.9c-9,0-14.3,10.8-17.5,16.5c-4,7.2-8.4,40.2,11.3,30.3c0.2-0.7,0.2-1.4,0.1-2.2"/>
    <path fill="#939598" stroke="#000000" stroke-linecap="round" stroke-linejoin="bevel" stroke-miterlimit="10" d="M284.4,246
		c-1.4-8.6-16.3,0.8-17.2,4.9c-3.8,16.8-4.4,17.9,0,20c10.7,0.1,4.9-8.1,6.7-13.5c0.9-2.6,4.8-2.8,6.4-5.5
		C281.3,250.3,282.2,251.1,284.4,246"/>
    <path fill="#FFFFFF" d="M336.5,185.3c0,7.9,3.4,14.4,2.7,21.6c-0.7,8.6-7.5,13.7-10.2,20.9c-5.4,15.1,0.7,31.6-7.5,45.3
		c-5.4,7.9-8.2,15.1-15.6,20.9c-6.1,5-8.8,12.9-15,17.3c-6.8,5-15,3.6-22.4,5.8c-7.5,2.2-27.9,10.7-28.6,20"/>
    <path d="M334.4,186.1c0.3,10.1,5.5,19.4-0.1,29c-1.8,3.1-4.1,6-5.8,9.2c-2,3.6-2.9,7.8-3.5,11.9c-1.4,9.3-0.2,18.7-2,28
		c-1.1,5.5-4.5,10-7.4,14.7c-2.5,4.1-5,8.1-8.5,11.5c-2.7,2.7-5.5,4.9-7.8,8c-2.8,3.8-5.3,8-9.1,11c-6.8,5.2-17.2,3.7-25.1,6.5
		c-9.5,3.3-25.8,9.8-27.3,21.4c-0.4,3.2,3.7,2.1,4.1-0.5c0.9-6.5,10.3-10.7,15.5-13.2c7-3.4,13.8-5,21.5-6
		c7.7-0.9,13.9-4.1,18.6-10.3c2.8-3.7,5.2-7.6,8.5-10.9c3.1-3.1,6.2-5.7,8.9-9.3c4.7-6.4,10-14.1,11.9-21.9
		c2.4-9.7,1.2-19.7,2.4-29.5c1.2-9.6,7.9-15.5,11.1-24.2c3.3-8.8-1.4-18.1-1.7-27C338.5,181.4,334.4,183.7,334.4,186.1L334.4,186.1z
		"/>
    <path fill="none" stroke="#000000" stroke-linecap="round" stroke-linejoin="bevel" stroke-miterlimit="10" d="M347.4,324.5
		c4.9-2.7,5.5-3.8,11.7-3.6c6.4,0.2,8.5,1.6,15.5,0.8"/>
    <path fill="none" stroke="#000000" stroke-linecap="round" stroke-linejoin="bevel" stroke-miterlimit="10" d="M347.4,316
		c0.4-6.3,8.3-6.7,14.4-3.8"/>
    <path fill="none" stroke="#000000" stroke-linecap="round" stroke-linejoin="bevel" stroke-miterlimit="10" d="M415.3,351.7
		c3.4-2.4,7.1-1.2,9,2.1"/>
    <path fill="none" stroke="#000000" stroke-linecap="round" stroke-linejoin="bevel" stroke-miterlimit="10" d="M426.3,362.2
		c-0.6,5.5,1.8,9.8,2,15"/>
    <path fill="none" stroke="#000000" stroke-linecap="round" stroke-linejoin="bevel" stroke-miterlimit="10" d="M413.7,369.1
		c1.9,4.3,3.9,9.5,7.4,12.9"/>
    <path fill="none" stroke="#000000" stroke-linecap="round" stroke-linejoin="bevel" stroke-miterlimit="10" d="M400.7,356
		c-5.6,2.3-2.6,6.1,0,11"/>
    <path fill="#808285" stroke="#000000" stroke-width="3" stroke-linejoin="bevel" stroke-miterlimit="10" d="M204.2,293.3
		c3,0.6,21.3,1.3,23.9,3.9c12,12,21.9,20.4,27.5,26.3c4.6,4.8,35.6,19.3,35.6,47.3c0,2.1,6.2,8.2,15.4,14.1
		c5.7,3.7,12.1,5.5,16.6,9.1c4,3.2,20.5,10.7,24.8,12.4c11.6,4.5,12.5,10.5,52.1,30.8c-28.6,0.2-91.8-0.7-120.8,0
		c-19.5,0.5-42.9,1.3-62.1,1.3c-13.1,0-44.5-1.4-61-2.1c-1.4-21.9,0-60.3,2.7-82.2c1.4-10.9,12.7-46.3,19.2-51.1
		c2.5-1.8,4-3,7.1-5.3c1.5-1.1,3.5-2.8,5.2-4.2c2.7-2.2,12.1-0.6,13.7-0.5"/>
    <path fill="#FFFFFF" d="M186.1,299.1c5.2-4.4,5.4-4.5,5.4-4.5l6.2-5.1l27.8,1.8l30.9,28.6c0,0-9.4,8.5-11.6,10.4
		c-3,2.6-9.7,4.9-9.7,4.9c-5.5-0.6-15.4,2.2-25.3-4.8C199.2,322.9,184.9,300.1,186.1,299.1L186.1,299.1z"/>
    <path fill="none" stroke="#000000" stroke-width="5" stroke-linecap="round" stroke-linejoin="bevel"
          stroke-miterlimit="10" d="
		M308.1,217.8c0,8.8-1,21.3-11.6,22.6"/>

    <line fill="none" stroke="#000000" stroke-width="6" stroke-linejoin="bevel" stroke-miterlimit="10" x1="154.2"
          y1="436.5" x2="513.8" y2="436.5"/>
    <path fill="#FFFFFF" d="M175.1,304.9"/>
</g>
</svg>
